# xmcd
#
# Track frame offsets:
#	150
#	23020
#	47800
#	66190
#	83455
#	111758
#	131485
#	162508
#	195170
#
# Disc length: 2941 seconds
#
# Revision: 1
# Processed by: cddbd v1.4PL0 Copyright (c) Steve Scherf et al.
# Submitted via: EasyCDDAExtractor 5.0.6
#
DISCID=690b7b09
DTITLE=Funkomatic - Living On One
DYEAR=1995
DGENRE=Funk
TTITLE0=Funk School
TTITLE1=Bootypolice
TTITLE2=Dance With Me
TTITLE3=Living On One
TTITLE4=Intensity
TTITLE5=Funkomatic Express
TTITLE6=Bootypolice (uncut)
TTITLE7=Dance With Me (uncut)
TTITLE8=Living On One (uncut)
EXTD=
EXTT0=
EXTT1=
EXTT2=
EXTT3=
EXTT4=
EXTT5=
EXTT6=
EXTT7=
EXTT8=
PLAYORDER=
